<?xml version="1.0" encoding="UTF-8"?>
<!DOCTYPE svg PUBLIC "-//W3C//DTD SVG 1.1//EN" "http://www.w3.org/Graphics/SVG/1.1/DTD/svg11.dtd">
<svg xmlns="http://www.w3.org/2000/svg" version="1.1" width="512px" height="512px" style="shape-rendering:geometricPrecision; text-rendering:geometricPrecision; image-rendering:optimizeQuality; fill-rule:evenodd; clip-rule:evenodd" xmlns:xlink="http://www.w3.org/1999/xlink">
<g><path style="opacity:1" fill="#f23e1f" d="M 436.5,-0.5 C 437.5,-0.5 438.5,-0.5 439.5,-0.5C 455.676,3.81593 460.509,13.8159 454,29.5C 449.714,35.5403 443.88,38.2069 436.5,37.5C 430.388,35.9366 425.388,32.6033 421.5,27.5C 416.997,13.0166 421.997,3.68331 436.5,-0.5 Z"/></g>
<g><path style="opacity:1" fill="#d4c7c0" d="M 421.5,27.5 C 425.388,32.6033 430.388,35.9366 436.5,37.5C 412.416,75.3368 388.083,113.003 363.5,150.5C 359.663,145.415 354.663,142.082 348.5,140.5C 373.083,103.003 397.416,65.3368 421.5,27.5 Z"/></g>
<g><path style="opacity:1" fill="#03bb4b" d="M 273.5,112.5 C 272.953,118.927 270.286,124.26 265.5,128.5C 261.141,130.755 256.474,131.755 251.5,131.5C 249.058,129.774 246.391,128.274 243.5,127C 241.361,124.522 239.361,122.022 237.5,119.5C 234.503,101.965 241.836,93.4646 259.5,94C 268.896,96.6368 273.562,102.803 273.5,112.5 Z"/></g>
<g><path style="opacity:1" fill="#d3c7c0" d="M 273.5,112.5 C 294.45,122.308 315.117,132.642 335.5,143.5C 333.913,146.268 332.08,148.935 330,151.5C 329.218,154.31 328.384,156.977 327.5,159.5C 307.117,148.642 286.45,138.308 265.5,128.5C 270.286,124.26 272.953,118.927 273.5,112.5 Z"/></g>
<g><path style="opacity:1" fill="#d3c7c0" d="M 237.5,119.5 C 239.361,122.022 241.361,124.522 243.5,127C 246.391,128.274 249.058,129.774 251.5,131.5C 227.938,159.61 204.605,187.943 181.5,216.5C 177.718,211.379 173.052,207.379 167.5,204.5C 190.833,176.167 214.167,147.833 237.5,119.5 Z"/></g>
<g><path style="opacity:1" fill="#f23d1e" d="M 410.5,127.5 C 429.329,126.338 448.329,126.171 467.5,127C 475.998,128.488 481.498,133.322 484,141.5C 484.295,254.835 484.795,368.169 485.5,481.5C 460.5,481.5 435.5,481.5 410.5,481.5C 410.333,368.166 410.5,254.833 411,141.5C 413.5,135 418,130.5 424.5,128C 419.845,127.501 415.179,127.334 410.5,127.5 Z"/></g>
<g><path style="opacity:1" fill="#c12518" d="M 410.5,127.5 C 415.179,127.334 419.845,127.501 424.5,128C 418,130.5 413.5,135 411,141.5C 410.5,254.833 410.333,368.166 410.5,481.5C 404.5,481.5 398.5,481.5 392.5,481.5C 392.5,414.5 392.5,347.5 392.5,280.5C 392.333,234.165 392.5,187.832 393,141.5C 395.435,132.563 401.268,127.896 410.5,127.5 Z"/></g>
<g><path style="opacity:1" fill="#f99601" d="M 348.5,140.5 C 354.663,142.082 359.663,145.415 363.5,150.5C 368.454,164.09 364.121,173.257 350.5,178C 337.036,179.036 329.369,172.869 327.5,159.5C 328.384,156.977 329.218,154.31 330,151.5C 332.08,148.935 333.913,146.268 335.5,143.5C 339.581,141.474 343.915,140.474 348.5,140.5 Z"/></g>
<g><path style="opacity:1" fill="#44515d" d="M 90.5,174.5 C 89.4386,180.623 86.772,185.956 82.5,190.5C 69.7101,196.267 60.2101,192.934 54,180.5C 51.7977,163.37 59.2977,155.204 76.5,156C 85.8742,158.574 90.5409,164.741 90.5,174.5 Z"/></g>
<g><path style="opacity:1" fill="#d3c7c0" d="M 90.5,174.5 C 111.342,185.755 132.342,196.755 153.5,207.5C 148.381,211.747 145.381,217.081 144.5,223.5C 123.833,212.5 103.167,201.5 82.5,190.5C 86.772,185.956 89.4386,180.623 90.5,174.5 Z"/></g>
<g><path style="opacity:1" fill="#4b8ff2" d="M 167.5,204.5 C 173.052,207.379 177.718,211.379 181.5,216.5C 183.972,233.525 176.639,242.025 159.5,242C 150.263,239.264 145.263,233.097 144.5,223.5C 145.381,217.081 148.381,211.747 153.5,207.5C 157.813,205.041 162.48,204.041 167.5,204.5 Z"/></g>
<g><path style="opacity:1" fill="#03ba4a" d="M 246.5,220.5 C 259.837,220.333 273.171,220.5 286.5,221C 294.444,223.277 299.278,228.444 301,236.5C 301.5,251.163 301.667,265.83 301.5,280.5C 301.5,347.5 301.5,414.5 301.5,481.5C 276.833,481.5 252.167,481.5 227.5,481.5C 227.333,399.499 227.5,317.499 228,235.5C 231.24,226.807 237.407,221.807 246.5,220.5 Z"/></g>
<g><path style="opacity:1" fill="#00a23e" d="M 246.5,220.5 C 237.407,221.807 231.24,226.807 228,235.5C 227.5,317.499 227.333,399.499 227.5,481.5C 221.5,481.5 215.5,481.5 209.5,481.5C 209.5,436.167 209.5,390.833 209.5,345.5C 208.961,325.006 208.627,304.506 208.5,284C 208.371,267.458 208.871,250.958 210,234.5C 212.079,228.753 215.912,224.586 221.5,222C 229.749,220.594 238.083,220.094 246.5,220.5 Z"/></g>
<g><path style="opacity:1" fill="#f99500" d="M 338.5,267.5 C 351.504,267.333 364.504,267.5 377.5,268C 384.523,269.865 389.523,274.032 392.5,280.5C 392.5,347.5 392.5,414.5 392.5,481.5C 368.167,481.5 343.833,481.5 319.5,481.5C 319.333,415.166 319.5,348.832 320,282.5C 321.602,277.123 324.769,272.956 329.5,270C 332.742,269.594 335.742,268.761 338.5,267.5 Z"/></g>
<g><path style="opacity:1" fill="#ed7600" d="M 338.5,267.5 C 335.742,268.761 332.742,269.594 329.5,270C 324.769,272.956 321.602,277.123 320,282.5C 319.5,348.832 319.333,415.166 319.5,481.5C 313.5,481.5 307.5,481.5 301.5,481.5C 301.5,414.5 301.5,347.5 301.5,280.5C 303.019,277.979 304.686,275.479 306.5,273C 308.67,271.414 311.004,270.08 313.5,269C 321.749,267.594 330.083,267.094 338.5,267.5 Z"/></g>
<g><path style="opacity:1" fill="#43505c" d="M 60.5,282.5 C 74.504,282.333 88.504,282.5 102.5,283C 111.395,284.931 116.561,290.431 118,299.5C 118.5,314.163 118.667,328.83 118.5,343.5C 117.52,389.477 117.187,435.477 117.5,481.5C 93.1667,481.5 68.8333,481.5 44.5,481.5C 44.3333,420.166 44.5,358.832 45,297.5C 47.5032,289.679 52.6699,284.679 60.5,282.5 Z"/></g>
<g><path style="opacity:1" fill="#323e4b" d="M 60.5,282.5 C 52.6699,284.679 47.5032,289.679 45,297.5C 44.5,358.832 44.3333,420.166 44.5,481.5C 38.1667,481.5 31.8333,481.5 25.5,481.5C 25.3333,420.832 25.5,360.166 26,299.5C 27.4516,292.074 31.6183,286.907 38.5,284C 45.7458,282.609 53.0791,282.109 60.5,282.5 Z"/></g>
<g><path style="opacity:1" fill="#18baf2" d="M 133.5,332.5 C 153.663,331.337 173.996,331.171 194.5,332C 201.617,334.29 206.617,338.79 209.5,345.5C 209.5,390.833 209.5,436.167 209.5,481.5C 184.833,481.5 160.167,481.5 135.5,481.5C 135.333,437.165 135.5,392.832 136,348.5C 137.525,341.298 141.692,336.132 148.5,333C 143.511,332.501 138.511,332.334 133.5,332.5 Z"/></g>
<g><path style="opacity:1" fill="#01a1df" d="M 133.5,332.5 C 138.511,332.334 143.511,332.501 148.5,333C 141.692,336.132 137.525,341.298 136,348.5C 135.5,392.832 135.333,437.165 135.5,481.5C 129.5,481.5 123.5,481.5 117.5,481.5C 117.187,435.477 117.52,389.477 118.5,343.5C 121.507,337.165 126.507,333.498 133.5,332.5 Z"/></g>
<g><path style="opacity:1" fill="#b3b4ae" d="M 25.5,481.5 C 31.8333,481.5 38.1667,481.5 44.5,481.5C 68.8333,481.5 93.1667,481.5 117.5,481.5C 123.5,481.5 129.5,481.5 135.5,481.5C 160.167,481.5 184.833,481.5 209.5,481.5C 215.5,481.5 221.5,481.5 227.5,481.5C 252.167,481.5 276.833,481.5 301.5,481.5C 210.001,482.333 118.334,482.833 26.5,483C 17.2287,487.893 15.062,495.059 20,504.5C 22.9978,507.738 26.4978,510.071 30.5,511.5C 24.5,511.5 18.5,511.5 12.5,511.5C 6.56423,510.354 2.23089,507.02 -0.5,501.5C -0.5,497.833 -0.5,494.167 -0.5,490.5C 6.03427,482.077 14.7009,479.077 25.5,481.5 Z"/></g>
<g><path style="opacity:1" fill="#d4c7c0" d="M 301.5,481.5 C 307.5,481.5 313.5,481.5 319.5,481.5C 343.833,481.5 368.167,481.5 392.5,481.5C 398.5,481.5 404.5,481.5 410.5,481.5C 435.5,481.5 460.5,481.5 485.5,481.5C 491.176,481.334 496.843,481.501 502.5,482C 506.685,483.688 509.685,486.521 511.5,490.5C 511.5,494.167 511.5,497.833 511.5,501.5C 509.588,505.905 506.255,508.739 501.5,510C 372.666,510.167 243.999,510.667 115.5,511.5C 87.1667,511.5 58.8333,511.5 30.5,511.5C 26.4978,510.071 22.9978,507.738 20,504.5C 15.062,495.059 17.2287,487.893 26.5,483C 118.334,482.833 210.001,482.333 301.5,481.5 Z"/></g>
</svg>
