<?xml version="1.0" encoding="UTF-8"?>
<!DOCTYPE svg PUBLIC "-//W3C//DTD SVG 1.1//EN" "http://www.w3.org/Graphics/SVG/1.1/DTD/svg11.dtd">
<svg xmlns="http://www.w3.org/2000/svg" version="1.1" width="512px" height="512px" style="shape-rendering:geometricPrecision; text-rendering:geometricPrecision; image-rendering:optimizeQuality; fill-rule:evenodd; clip-rule:evenodd" xmlns:xlink="http://www.w3.org/1999/xlink">
<g><path style="opacity:1" fill="#964419" d="M 109.5,-0.5 C 113.167,-0.5 116.833,-0.5 120.5,-0.5C 120.5,140.167 120.5,280.833 120.5,421.5C 118.167,421.5 115.833,421.5 113.5,421.5C 85.0644,420.19 67.3977,433.19 60.5,460.5C 60.3333,323.5 60.5,186.5 61,49.5C 66.9116,22.7567 83.0782,6.09006 109.5,-0.5 Z"/></g>
<g><path style="opacity:1" fill="#f9834b" d="M 120.5,-0.5 C 175.5,-0.5 230.5,-0.5 285.5,-0.5C 285.5,20.1667 285.5,40.8333 285.5,61.5C 283.901,61.2322 282.568,61.5655 281.5,62.5C 276.742,63.4141 273.242,66.0808 271,70.5C 263.582,86.5028 255.749,102.336 247.5,118C 228.512,121.109 209.512,124.109 190.5,127C 180.439,131.96 177.939,139.46 183,149.5C 196.014,162.681 209.181,175.681 222.5,188.5C 222.833,189.667 223.167,190.833 223.5,192C 220.823,210.061 217.823,228.061 214.5,246C 214.85,253.043 218.183,258.043 224.5,261C 228.594,261.767 232.594,261.434 236.5,260C 252.371,251.565 268.371,243.398 284.5,235.5C 284.833,235.5 285.167,235.5 285.5,235.5C 285.5,247.167 285.5,258.833 285.5,270.5C 279.633,270.868 275.133,273.534 272,278.5C 270.863,290.6 270.363,302.766 270.5,315C 270.667,326.167 270.833,337.333 271,348.5C 272.825,356.159 277.658,360.159 285.5,360.5C 285.5,380.833 285.5,401.167 285.5,421.5C 230.5,421.5 175.5,421.5 120.5,421.5C 120.5,280.833 120.5,140.167 120.5,-0.5 Z"/></g>
<g><path style="opacity:1" fill="#f94b4b" d="M 285.5,-0.5 C 337.5,-0.5 389.5,-0.5 441.5,-0.5C 445.479,1.31481 448.312,4.31481 450,8.5C 450.5,146.166 450.667,283.833 450.5,421.5C 395.5,421.5 340.5,421.5 285.5,421.5C 285.5,401.167 285.5,380.833 285.5,360.5C 293.076,360.422 297.909,356.755 300,349.5C 300.818,326.303 300.651,303.136 299.5,280C 297.063,273.611 292.396,270.444 285.5,270.5C 285.5,258.833 285.5,247.167 285.5,235.5C 302.269,243.718 318.936,252.218 335.5,261C 347.654,263.168 354.321,258.168 355.5,246C 352.603,227.121 349.769,208.288 347,189.5C 360.638,176.863 373.971,163.863 387,150.5C 391.511,141.714 390.011,134.214 382.5,128C 362.502,124.453 342.502,120.953 322.5,117.5C 313.868,99.7338 304.868,82.2338 295.5,65C 292.395,63.1319 289.062,61.9652 285.5,61.5C 285.5,40.8333 285.5,20.1667 285.5,-0.5 Z"/></g>
<g><path style="opacity:1" fill="#fae67c" d="M 281.5,62.5 C 282.833,62.5 284.167,62.5 285.5,62.5C 285.829,120.238 285.496,177.905 284.5,235.5C 268.371,243.398 252.371,251.565 236.5,260C 232.594,261.434 228.594,261.767 224.5,261C 218.183,258.043 214.85,253.043 214.5,246C 217.823,228.061 220.823,210.061 223.5,192C 223.167,190.833 222.833,189.667 222.5,188.5C 209.181,175.681 196.014,162.681 183,149.5C 177.939,139.46 180.439,131.96 190.5,127C 209.512,124.109 228.512,121.109 247.5,118C 255.749,102.336 263.582,86.5028 271,70.5C 273.242,66.0808 276.742,63.4141 281.5,62.5 Z"/></g>
<g><path style="opacity:1" fill="#facd4b" d="M 281.5,62.5 C 282.568,61.5655 283.901,61.2322 285.5,61.5C 289.062,61.9652 292.395,63.1319 295.5,65C 304.868,82.2338 313.868,99.7338 322.5,117.5C 342.502,120.953 362.502,124.453 382.5,128C 390.011,134.214 391.511,141.714 387,150.5C 373.971,163.863 360.638,176.863 347,189.5C 349.769,208.288 352.603,227.121 355.5,246C 354.321,258.168 347.654,263.168 335.5,261C 318.936,252.218 302.269,243.718 285.5,235.5C 285.167,235.5 284.833,235.5 284.5,235.5C 285.496,177.905 285.829,120.238 285.5,62.5C 284.167,62.5 282.833,62.5 281.5,62.5 Z"/></g>
<g><path style="opacity:1" fill="#e1ecec" d="M 285.5,270.5 C 285.5,300.5 285.5,330.5 285.5,360.5C 277.658,360.159 272.825,356.159 271,348.5C 270.833,337.333 270.667,326.167 270.5,315C 270.363,302.766 270.863,290.6 272,278.5C 275.133,273.534 279.633,270.868 285.5,270.5 Z"/></g>
<g><path style="opacity:1" fill="#cee0e0" d="M 285.5,270.5 C 292.396,270.444 297.063,273.611 299.5,280C 300.651,303.136 300.818,326.303 300,349.5C 297.909,356.755 293.076,360.422 285.5,360.5C 285.5,330.5 285.5,300.5 285.5,270.5 Z"/></g>
<g><path style="opacity:1" fill="#e1eceb" d="M 221.5,300.5 C 230.479,299.729 236.645,303.396 240,311.5C 240.667,323.833 240.667,336.167 240,348.5C 238.116,356.288 233.116,360.288 225,360.5C 217.346,360.004 212.679,356.004 211,348.5C 210.333,336.167 210.333,323.833 211,311.5C 212.684,305.984 216.184,302.318 221.5,300.5 Z"/></g>
<g><path style="opacity:1" fill="#cedfdf" d="M 341.5,300.5 C 350.479,299.729 356.645,303.396 360,311.5C 360.667,323.833 360.667,336.167 360,348.5C 358.116,356.288 353.116,360.288 345,360.5C 337.346,360.004 332.679,356.004 331,348.5C 330.333,336.167 330.333,323.833 331,311.5C 332.684,305.984 336.184,302.318 341.5,300.5 Z"/></g>
<g><path style="opacity:1" fill="#f94b4b" d="M 113.5,421.5 C 92.1121,430.619 85.9455,445.953 95,467.5C 98.7154,473.444 103.882,477.611 110.5,480C 168.775,481.488 227.108,481.988 285.5,481.5C 285.5,491.5 285.5,501.5 285.5,511.5C 222.167,511.5 158.833,511.5 95.5,511.5C 70.9117,503.549 59.245,486.549 60.5,460.5C 67.3977,433.19 85.0644,420.19 113.5,421.5 Z"/></g>
<g><path style="opacity:1" fill="#e1ecec" d="M 113.5,421.5 C 115.833,421.5 118.167,421.5 120.5,421.5C 175.5,421.5 230.5,421.5 285.5,421.5C 285.5,441.5 285.5,461.5 285.5,481.5C 227.108,481.988 168.775,481.488 110.5,480C 103.882,477.611 98.7154,473.444 95,467.5C 85.9455,445.953 92.1121,430.619 113.5,421.5 Z"/></g>
<g><path style="opacity:1" fill="#cde1e0" d="M 285.5,421.5 C 340.5,421.5 395.5,421.5 450.5,421.5C 450.5,441.5 450.5,461.5 450.5,481.5C 395.5,481.5 340.5,481.5 285.5,481.5C 285.5,461.5 285.5,441.5 285.5,421.5 Z"/></g>
<g><path style="opacity:1" fill="#c8255c" d="M 285.5,481.5 C 340.5,481.5 395.5,481.5 450.5,481.5C 450.666,488.508 450.5,495.508 450,502.5C 448.312,506.685 445.479,509.685 441.5,511.5C 389.5,511.5 337.5,511.5 285.5,511.5C 285.5,501.5 285.5,491.5 285.5,481.5 Z"/></g>
</svg>
