<?xml version="1.0" encoding="UTF-8"?>
<!DOCTYPE svg PUBLIC "-//W3C//DTD SVG 1.1//EN" "http://www.w3.org/Graphics/SVG/1.1/DTD/svg11.dtd">
<svg xmlns="http://www.w3.org/2000/svg" version="1.1" width="512px" height="512px" style="shape-rendering:geometricPrecision; text-rendering:geometricPrecision; image-rendering:optimizeQuality; fill-rule:evenodd; clip-rule:evenodd" xmlns:xlink="http://www.w3.org/1999/xlink">
<g><path style="opacity:1" fill="#000200" d="M 252.5,5.5 C 256.131,5.16039 259.464,5.99372 262.5,8C 280.588,19.1261 298.422,30.6261 316,42.5C 316.667,44.5 316.667,46.5 316,48.5C 296.205,61.4654 276.039,73.7987 255.5,85.5C 252.275,85.3121 250.441,83.6454 250,80.5C 249.667,75.1667 249.333,69.8333 249,64.5C 172.848,70.0591 115.848,105.726 78,171.5C 57.4051,212.769 49.9051,256.269 55.5,302C 53.6354,303.301 51.6354,303.635 49.5,303C 38.587,297.294 27.7537,291.461 17,285.5C 11.3503,197.979 42.8503,127.146 111.5,73C 152.603,43.3532 198.603,27.5198 249.5,25.5C 249.334,20.4889 249.501,15.4889 250,10.5C 250.366,8.54826 251.199,6.88159 252.5,5.5 Z"/></g>
<g><path style="opacity:1" fill="#2acf2a" d="M 44.5,281.5 C 44.7947,283.735 44.4614,285.735 43.5,287.5C 37.5766,284.76 31.7432,281.76 26,278.5C 23.653,206.387 48.4863,145.554 100.5,96C 145.066,56.2373 197.4,36.2373 257.5,36C 258.701,35.0975 259.535,33.9308 260,32.5C 260.333,28.1667 260.667,23.8333 261,19.5C 274.416,28.125 287.916,36.625 301.5,45C 288.336,53.7497 275.003,62.2497 261.5,70.5C 260.672,66.2044 260.172,61.8711 260,57.5C 259.5,56.3333 258.667,55.5 257.5,55C 176.362,56.6416 114.528,91.8083 72,160.5C 50.8879,198.078 41.7212,238.411 44.5,281.5 Z"/></g>
<g><path style="opacity:1" fill="#000100" d="M 356.5,49.5 C 358.199,49.3398 359.866,49.5065 361.5,50C 447.356,95.8183 492.023,167.652 495.5,265.5C 495.697,306.379 486.03,344.713 466.5,380.5C 471.13,383.486 475.797,386.486 480.5,389.5C 483.101,393.193 482.434,396.359 478.5,399C 459.658,409.255 440.658,419.255 421.5,429C 418.653,429.944 416.153,429.444 414,427.5C 412.638,404.837 411.472,382.171 410.5,359.5C 410.876,355.79 412.876,353.79 416.5,353.5C 421.975,355.488 427.141,358.155 432,361.5C 466.078,293.941 464.411,227.275 427,161.5C 402.285,122.127 368.285,93.7934 325,76.5C 324.105,73.5337 324.605,70.8671 326.5,68.5C 336.564,62.1421 346.564,55.8087 356.5,49.5 Z"/></g>
<g><path style="opacity:1" fill="#29cf29" d="M 358.5,60.5 C 439.626,104.389 481.959,172.723 485.5,265.5C 485.313,298.627 478.48,330.293 465,360.5C 461.149,368.203 457.315,375.87 453.5,383.5C 453.529,385.029 454.196,386.196 455.5,387C 459.04,388.931 462.374,391.098 465.5,393.5C 451.992,401.088 438.326,408.421 424.5,415.5C 423.808,414.975 423.308,414.308 423,413.5C 422.311,398.163 421.978,382.83 422,367.5C 425.167,369.333 428.333,371.167 431.5,373C 433.769,373.758 435.936,373.591 438,372.5C 467.319,320.423 474.319,265.423 459,207.5C 439.25,145.502 400.083,100.335 341.5,72C 347.232,68.1436 352.899,64.3103 358.5,60.5 Z"/></g>
<g><path style="opacity:1" fill="#030200" d="M 251.5,125.5 C 320.666,127.857 366.833,161.524 390,226.5C 403.668,282.145 390.168,329.978 349.5,370C 310.14,403.003 265.474,413.003 215.5,400C 156.552,379.709 123.386,338.542 116,276.5C 113.52,226.903 131.353,186.403 169.5,155C 193.902,136.922 221.236,127.089 251.5,125.5 Z"/></g>
<g><path style="opacity:1" fill="#f5bd2a" d="M 346.5,174.5 C 386.72,223.181 392.554,275.848 364,332.5C 360.389,338.444 356.389,344.111 352,349.5C 351.517,350.448 351.351,351.448 351.5,352.5C 322.076,383.861 285.742,398.028 242.5,395C 194.814,387.952 159.981,363.118 138,320.5C 114.662,261.694 125.829,210.528 171.5,167C 216.931,131.877 265.597,126.877 317.5,152C 328.321,158.069 337.987,165.569 346.5,174.5 Z"/></g>
<g><path style="opacity:1" fill="#070400" d="M 242.5,153.5 C 288.746,151.041 324.912,168.708 351,206.5C 370.391,240.277 372.724,275.277 358,311.5C 333.216,359.484 293.716,381.317 239.5,377C 197.398,369.361 167.898,345.861 151,306.5C 135.014,258.741 144.848,217.241 180.5,182C 198.593,166.785 219.26,157.285 242.5,153.5 Z"/></g>
<g><path style="opacity:1" fill="#f1a700" d="M 215.5,359.5 C 170.824,329.5 154.324,288.167 166,235.5C 175.248,208.096 192.081,186.763 216.5,171.5C 260.469,155.462 298.969,164.129 332,197.5C 361.596,234.764 365.596,274.764 344,317.5C 318.997,355.416 283.831,371.916 238.5,367C 230.371,365.567 222.704,363.067 215.5,359.5 Z"/></g>
<g><path style="opacity:1" fill="#e79200" d="M 216.5,171.5 C 192.081,186.763 175.248,208.096 166,235.5C 154.324,288.167 170.824,329.5 215.5,359.5C 170.471,337.805 149.971,301.805 154,251.5C 160.724,213.678 181.557,187.011 216.5,171.5 Z"/></g>
<g><path style="opacity:1" fill="#040200" d="M 253.5,187.5 C 256.368,187.085 258.535,188.085 260,190.5C 260.499,196.491 260.666,202.491 260.5,208.5C 277.149,209.472 287.483,217.972 291.5,234C 291.191,238.332 288.857,239.999 284.5,239C 282.147,236.3 280.647,233.134 280,229.5C 275.347,222.59 268.847,218.923 260.5,218.5C 260.5,233.5 260.5,248.5 260.5,263.5C 274.653,265.982 284.82,273.649 291,286.5C 293.853,309.486 283.686,321.819 260.5,323.5C 260.666,329.509 260.499,335.509 260,341.5C 257,345.5 254,345.5 251,341.5C 250.501,335.509 250.334,329.509 250.5,323.5C 233.786,321.115 223.453,311.782 219.5,295.5C 219.833,291.011 222.167,289.511 226.5,291C 230.165,303.166 238.165,310.666 250.5,313.5C 250.5,298.833 250.5,284.167 250.5,269.5C 227.683,264.879 218.183,251.213 222,228.5C 227.5,216.171 237,209.504 250.5,208.5C 250.334,202.491 250.501,196.491 251,190.5C 251.698,189.309 252.531,188.309 253.5,187.5 Z"/></g>
<g><path style="opacity:1" fill="#e69f01" d="M 346.5,174.5 C 377.98,206.448 390.146,244.782 383,289.5C 378.294,313.578 367.794,334.578 351.5,352.5C 351.351,351.448 351.517,350.448 352,349.5C 356.389,344.111 360.389,338.444 364,332.5C 392.554,275.848 386.72,223.181 346.5,174.5 Z"/></g>
<g><path style="opacity:1" fill="#efa500" d="M 245.5,218.5 C 247.167,218.5 248.833,218.5 250.5,218.5C 250.5,232.167 250.5,245.833 250.5,259.5C 235.967,256.154 229.467,247.154 231,232.5C 233.774,225.557 238.607,220.89 245.5,218.5 Z"/></g>
<g><path style="opacity:1" fill="#efa500" d="M 260.5,273.5 C 272.221,275.724 279.554,282.557 282.5,294C 280.769,306.714 273.436,313.214 260.5,313.5C 260.5,300.167 260.5,286.833 260.5,273.5 Z"/></g>
<g><path style="opacity:1" fill="#136d14" d="M 44.5,281.5 C 45.7969,283.693 45.7969,286.027 44.5,288.5C 43.8933,288.376 43.56,288.043 43.5,287.5C 44.4614,285.735 44.7947,283.735 44.5,281.5 Z"/></g>
<g><path style="opacity:1" fill="#000200" d="M 33.5,322.5 C 35.5273,322.338 37.5273,322.505 39.5,323C 58.8333,333.333 78.1667,343.667 97.5,354C 100.638,356.419 101.138,359.253 99,362.5C 94.2488,365.459 89.4155,368.293 84.5,371C 120.637,426.713 171.97,458.38 238.5,466C 291.979,469.614 339.646,454.947 381.5,422C 384.669,421.022 387.503,421.522 390,423.5C 391.443,436.805 391.777,450.138 391,463.5C 350.417,491.858 305.25,505.858 255.5,505.5C 182.179,504.748 121.346,477.081 73,422.5C 64.843,412.186 57.1764,401.52 50,390.5C 46.0954,393.398 41.9287,395.898 37.5,398C 31.9481,399.728 28.9481,397.728 28.5,392C 29.6085,371.855 30.4419,351.688 31,331.5C 31.0566,328.189 31.8899,325.189 33.5,322.5 Z"/></g>
<g><path style="opacity:1" fill="#2acf2a" d="M 41.5,383.5 C 40.5098,377.355 40.1765,371.022 40.5,364.5C 40.3372,355.105 41.0038,345.772 42.5,336.5C 55.9592,343.466 69.2925,350.632 82.5,358C 83.8333,358.667 83.8333,359.333 82.5,360C 79.4151,361.96 76.2485,363.793 73,365.5C 71.6986,367.365 71.3653,369.365 72,371.5C 110.68,434.114 166.847,469.281 240.5,477C 291.827,479.664 338.327,466.164 380,436.5C 381.683,443.791 381.849,451.124 380.5,458.5C 310.893,501.362 238.226,507.195 162.5,476C 116.688,454.518 80.6882,422.185 54.5,379C 52.8333,378.333 51.1667,378.333 49.5,379C 46.9679,380.765 44.3013,382.265 41.5,383.5 Z"/></g>
<g><path style="opacity:1" fill="#136b14" d="M 40.5,364.5 C 40.1765,371.022 40.5098,377.355 41.5,383.5C 41.44,384.043 41.1067,384.376 40.5,384.5C 39.1819,377.678 39.1819,371.011 40.5,364.5 Z"/></g>
</svg>
