<?xml version="1.0" encoding="UTF-8"?>
<!DOCTYPE svg PUBLIC "-//W3C//DTD SVG 1.1//EN" "http://www.w3.org/Graphics/SVG/1.1/DTD/svg11.dtd">
<svg xmlns="http://www.w3.org/2000/svg" version="1.1" width="512px" height="512px" style="shape-rendering:geometricPrecision; text-rendering:geometricPrecision; image-rendering:optimizeQuality; fill-rule:evenodd; clip-rule:evenodd" xmlns:xlink="http://www.w3.org/1999/xlink">
<g><path style="opacity:1" fill="#040201" d="M 247.5,-0.5 C 252.833,-0.5 258.167,-0.5 263.5,-0.5C 300.318,0.693778 336.318,7.19378 371.5,19C 437.268,42.4345 482.101,86.9345 506,152.5C 509.633,167.18 506.133,179.847 495.5,190.5C 503.365,197.335 508.698,205.668 511.5,215.5C 511.5,223.833 511.5,232.167 511.5,240.5C 506.792,256.873 496.125,267.207 479.5,271.5C 479.333,286.17 479.5,300.837 480,315.5C 496.756,320.088 507.256,330.755 511.5,347.5C 511.5,355.833 511.5,364.167 511.5,372.5C 506.885,388.449 496.551,398.782 480.5,403.5C 478.772,451.144 455.772,483.644 411.5,501C 396.176,506.629 380.51,510.129 364.5,511.5C 291.833,511.5 219.167,511.5 146.5,511.5C 115.669,509.389 88.0026,498.889 63.5,480C 41.3609,459.449 30.3609,433.949 30.5,403.5C 14.4486,398.782 4.11524,388.449 -0.5,372.5C -0.5,364.167 -0.5,355.833 -0.5,347.5C 3.74428,330.755 14.2443,320.088 31,315.5C 31.4999,300.837 31.6666,286.17 31.5,271.5C 14.8748,267.207 4.2081,256.873 -0.5,240.5C -0.5,232.167 -0.5,223.833 -0.5,215.5C 2.30174,205.668 7.63507,197.335 15.5,190.5C 4.83431,179.839 1.33431,167.173 5,152.5C 26.764,91.4599 67.5974,48.6266 127.5,24C 132.128,22.6631 135.795,23.8298 138.5,27.5C 139.029,31.1916 138.029,34.3583 135.5,37C 78.1775,60.3208 39.3442,101.154 19,159.5C 18.3435,169.688 22.5102,177.188 31.5,182C 106.11,183.162 180.777,183.662 255.5,183.5C 329.334,183.5 403.001,183.167 476.5,182.5C 484.075,180.76 488.908,176.093 491,168.5C 491.667,164.5 491.667,160.5 491,156.5C 471.54,104.37 436.707,66.2036 386.5,42C 340.911,22.4003 293.244,13.567 243.5,15.5C 216.507,16.1982 190.007,20.1982 164,27.5C 160.17,26.8255 157.336,24.8255 155.5,21.5C 156.685,13.7082 161.352,9.87483 169.5,10C 195.34,4.18805 221.34,0.688055 247.5,-0.5 Z"/></g>
<g><path style="opacity:1" fill="#f68106" d="M 243.5,15.5 C 293.244,13.567 340.911,22.4003 386.5,42C 436.707,66.2036 471.54,104.37 491,156.5C 491.667,160.5 491.667,164.5 491,168.5C 488.908,176.093 484.075,180.76 476.5,182.5C 475.503,182.53 474.836,182.03 474.5,181C 476.895,175.223 477.062,169.389 475,163.5C 449.582,98.0846 403.415,54.5846 336.5,33C 305.567,23.4056 273.9,18.0723 241.5,17C 242.416,16.7216 243.082,16.2216 243.5,15.5 Z"/></g>
<g><path style="opacity:1" fill="#f99531" d="M 243.5,15.5 C 243.082,16.2216 242.416,16.7216 241.5,17C 273.9,18.0723 305.567,23.4056 336.5,33C 403.415,54.5846 449.582,98.0846 475,163.5C 477.062,169.389 476.895,175.223 474.5,181C 474.836,182.03 475.503,182.53 476.5,182.5C 403.001,183.167 329.334,183.5 255.5,183.5C 180.777,183.662 106.11,183.162 31.5,182C 22.5102,177.188 18.3435,169.688 19,159.5C 39.3442,101.154 78.1775,60.3208 135.5,37C 138.029,34.3583 139.029,31.1916 138.5,27.5C 144.167,25.5 149.833,23.5 155.5,21.5C 157.336,24.8255 160.17,26.8255 164,27.5C 190.007,20.1982 216.507,16.1982 243.5,15.5 Z"/></g>
<g><path style="opacity:1" fill="#0c0602" d="M 251.5,57.5 C 254.187,57.3359 256.854,57.5026 259.5,58C 260.701,58.9025 261.535,60.0692 262,61.5C 262.667,68.1667 262.667,74.8333 262,81.5C 259.839,85.1241 256.672,86.2907 252.5,85C 250.448,84.0701 248.948,82.5701 248,80.5C 247.333,74.5 247.333,68.5 248,62.5C 248.997,60.6769 250.164,59.0103 251.5,57.5 Z"/></g>
<g><path style="opacity:1" fill="#0d0602" d="M 190.5,57.5 C 197.319,57.4834 200.486,60.8167 200,67.5C 197.548,72.9073 194.714,78.0739 191.5,83C 182.961,86.4511 178.794,83.6177 179,74.5C 181.667,69.8333 184.333,65.1667 187,60.5C 188.145,59.3636 189.312,58.3636 190.5,57.5 Z"/></g>
<g><path style="opacity:1" fill="#090401" d="M 313.5,58.5 C 318.223,57.5531 322.056,58.8864 325,62.5C 326.934,66.7594 329.268,70.7594 332,74.5C 333.131,80.5376 330.631,83.871 324.5,84.5C 322.063,84.4016 320.063,83.4016 318.5,81.5C 316,77.1667 313.5,72.8333 311,68.5C 310.024,64.673 310.857,61.3396 313.5,58.5 Z"/></g>
<g><path style="opacity:1" fill="#9b5024" d="M 472.5,198.5 C 483.372,209.78 486.872,223.78 483,240.5C 480.848,246.656 477.348,251.823 472.5,256C 327.167,256.5 181.834,256.667 36.5,256.5C 21.2434,253.033 13.91,243.367 14.5,227.5C 13.9181,212.915 20.5848,203.415 34.5,199C 180.5,198.5 326.5,198.333 472.5,198.5 Z"/></g>
<g><path style="opacity:1" fill="#80441d" d="M 472.5,198.5 C 488.51,201.512 496.51,211.179 496.5,227.5C 497.101,243.805 489.434,253.638 473.5,257C 327.666,257.833 181.999,257.666 36.5,256.5C 181.834,256.667 327.167,256.5 472.5,256C 477.348,251.823 480.848,246.656 483,240.5C 486.872,223.78 483.372,209.78 472.5,198.5 Z"/></g>
<g><path style="opacity:1" fill="#f6dd55" d="M 450.5,272.5 C 450.5,277.833 450.5,283.167 450.5,288.5C 454.833,288.5 459.167,288.5 463.5,288.5C 412.335,289.333 361.002,289.833 309.5,290C 307.266,291.638 305.933,293.805 305.5,296.5C 298.833,296.5 292.167,296.5 285.5,296.5C 285.256,293.737 283.923,291.571 281.5,290C 240.5,289.333 199.5,289.333 158.5,290C 149.573,293.26 143.739,299.427 141,308.5C 140.667,342.167 140.333,375.833 140,409.5C 135.903,420.46 128.403,423.627 117.5,419C 114.469,416.441 112.302,413.274 111,409.5C 110.667,375.167 110.333,340.833 110,306.5C 107.041,297.94 101.208,292.44 92.5,290C 77.5037,289.5 62.5037,289.333 47.5,289.5C 47.5,283.833 47.5,278.167 47.5,272.5C 181.833,272.5 316.167,272.5 450.5,272.5 Z"/></g>
<g><path style="opacity:1" fill="#fada2d" d="M 450.5,272.5 C 454.833,272.5 459.167,272.5 463.5,272.5C 463.5,277.833 463.5,283.167 463.5,288.5C 459.167,288.5 454.833,288.5 450.5,288.5C 450.5,283.167 450.5,277.833 450.5,272.5 Z"/></g>
<g><path style="opacity:1" fill="#b4e569" d="M 285.5,296.5 C 292.167,296.5 298.833,296.5 305.5,296.5C 306.134,299.643 307.8,302.143 310.5,304C 357.165,304.5 403.832,304.667 450.5,304.5C 450.667,316.838 450.5,329.171 450,341.5C 449.427,343.641 448.594,345.641 447.5,347.5C 443.798,345.976 440.464,343.81 437.5,341C 422.158,334.44 407.158,335.106 392.5,343C 386.716,348.115 380.382,352.448 373.5,356C 365.713,358.221 358.046,357.888 350.5,355C 344.221,351.054 338.221,346.721 332.5,342C 321.775,336.717 310.442,335.051 298.5,337C 293.611,338.443 288.945,340.443 284.5,343C 279.111,347.389 273.444,351.389 267.5,355C 259.142,358.216 250.809,358.216 242.5,355C 235.441,349.609 228.107,344.609 220.5,340C 209.364,336.21 198.031,335.543 186.5,338C 176.313,344.198 166.146,350.365 156,356.5C 155.333,341.167 155.333,325.833 156,310.5C 157.167,308 159,306.167 161.5,305C 201.167,304.667 240.833,304.333 280.5,304C 283.789,302.59 285.456,300.09 285.5,296.5 Z"/></g>
<g><path style="opacity:1" fill="#b2e368" d="M 95.5,311.5 C 95.5,319.5 95.5,327.5 95.5,335.5C 92.6146,335.194 89.9479,335.527 87.5,336.5C 84.7835,336.678 82.1168,337.178 79.5,338C 73.48,341.366 67.48,344.7 61.5,348C 54.3311,348.512 49.4978,345.345 47,338.5C 46.5001,327.172 46.3335,315.838 46.5,304.5C 60.8372,304.333 75.1705,304.5 89.5,305C 92.4086,306.406 94.4086,308.572 95.5,311.5 Z"/></g>
<g><path style="opacity:1" fill="#9cdf2d" d="M 450.5,304.5 C 454.833,304.5 459.167,304.5 463.5,304.5C 463.941,317.241 463.441,329.908 462,342.5C 458.202,347.71 453.369,349.376 447.5,347.5C 448.594,345.641 449.427,343.641 450,341.5C 450.5,329.171 450.667,316.838 450.5,304.5 Z"/></g>
<g><path style="opacity:1" fill="#546c30" d="M 95.5,311.5 C 96.4927,319.65 96.8261,327.983 96.5,336.5C 93.5,336.5 90.5,336.5 87.5,336.5C 89.9479,335.527 92.6146,335.194 95.5,335.5C 95.5,327.5 95.5,319.5 95.5,311.5 Z"/></g>
<g><path style="opacity:1" fill="#e43d3d" d="M 30.5,331.5 C 31.3043,339.17 33.8043,346.503 38,353.5C 46.0994,362.423 55.9327,365.256 67.5,362C 72.9647,359.768 77.9647,356.768 82.5,353C 86.6879,351.369 91.0212,350.536 95.5,350.5C 95.5,363.167 95.5,375.833 95.5,388.5C 74.4974,388.667 53.4974,388.5 32.5,388C 23.1659,384.665 17.3326,378.165 15,368.5C 11.356,352.219 16.5227,339.886 30.5,331.5 Z"/></g>
<g><path style="opacity:1" fill="#cf2a2a" d="M 473.5,388.5 C 484.057,377.168 487.557,363.835 484,348.5C 482.812,344.387 480.979,340.72 478.5,337.5C 478.201,335.396 478.534,333.396 479.5,331.5C 494.329,339.432 499.829,351.766 496,368.5C 492.908,380.129 485.408,386.795 473.5,388.5 Z"/></g>
<g><path style="opacity:1" fill="#e53d3d" d="M 478.5,337.5 C 480.979,340.72 482.812,344.387 484,348.5C 487.557,363.835 484.057,377.168 473.5,388.5C 367.5,388.5 261.5,388.5 155.5,388.5C 155.171,382.794 155.505,377.128 156.5,371.5C 162.164,370.169 167.497,368.002 172.5,365C 178.284,359.885 184.618,355.552 191.5,352C 199.679,350.898 207.679,351.565 215.5,354C 222.167,358.667 228.833,363.333 235.5,368C 250.969,374.633 265.969,373.633 280.5,365C 286.379,359.455 293.045,355.122 300.5,352C 314.838,349.224 326.838,353.224 336.5,364C 353.564,374.978 370.897,375.311 388.5,365C 394.379,359.455 401.045,355.122 408.5,352C 413.833,351.333 419.167,351.333 424.5,352C 430.79,354.812 436.79,358.145 442.5,362C 462.799,365.85 474.799,357.683 478.5,337.5 Z"/></g>
<g><path style="opacity:1" fill="#8d521c" d="M 96.5,410.5 C 95.5386,408.735 95.2053,406.735 95.5,404.5C 79.5,404.5 63.5,404.5 47.5,404.5C 47.5,408.5 47.5,412.5 47.5,416.5C 46.5151,412.366 46.1818,408.032 46.5,403.5C 63.1667,403.5 79.8333,403.5 96.5,403.5C 96.5,405.833 96.5,408.167 96.5,410.5 Z"/></g>
<g><path style="opacity:1" fill="#f89531" d="M 463.5,404.5 C 458.5,404.5 453.5,404.5 448.5,404.5C 448.327,443.957 430.66,472.291 395.5,489.5C 388.229,492.388 380.563,494.222 372.5,495C 291.807,495.98 211.14,495.647 130.5,494C 109.857,490.01 91.1904,481.677 74.5,469C 58.7538,455.008 49.7538,437.508 47.5,416.5C 47.5,412.5 47.5,408.5 47.5,404.5C 63.5,404.5 79.5,404.5 95.5,404.5C 95.2053,406.735 95.5386,408.735 96.5,410.5C 99.8358,426.167 109.502,434.833 125.5,436.5C 145.291,434.377 155.291,423.377 155.5,403.5C 258.335,403.167 361.001,403.501 463.5,404.5 Z"/></g>
<g><path style="opacity:1" fill="#f68106" d="M 463.5,404.5 C 463.364,443.262 445.364,470.095 409.5,485C 404.98,487.007 400.313,488.507 395.5,489.5C 430.66,472.291 448.327,443.957 448.5,404.5C 453.5,404.5 458.5,404.5 463.5,404.5 Z"/></g>
</svg>
