<?xml version="1.0" encoding="UTF-8"?>
<!DOCTYPE svg PUBLIC "-//W3C//DTD SVG 1.1//EN" "http://www.w3.org/Graphics/SVG/1.1/DTD/svg11.dtd">
<svg xmlns="http://www.w3.org/2000/svg" version="1.1" width="512px" height="512px" style="shape-rendering:geometricPrecision; text-rendering:geometricPrecision; image-rendering:optimizeQuality; fill-rule:evenodd; clip-rule:evenodd" xmlns:xlink="http://www.w3.org/1999/xlink">
<g><path style="opacity:1" fill="#76a711" d="M 233.5,41.5 C 201.085,75.4162 168.085,108.916 134.5,142C 148.496,142.5 162.496,142.667 176.5,142.5C 176.5,142.833 176.5,143.167 176.5,143.5C 162.167,143.5 147.833,143.5 133.5,143.5C 115.167,142.833 96.8333,142.167 78.5,141.5C 101.833,117.833 125.167,94.1667 148.5,70.5C 165.298,53.2014 182.298,36.0348 199.5,19C 202.776,16.6128 206.109,16.2794 209.5,18C 217.368,26.0358 225.368,33.8691 233.5,41.5 Z"/></g>
<g><path style="opacity:1" fill="#88c718" d="M 319.5,70.5 C 342.833,94.1667 366.167,117.833 389.5,141.5C 376.01,142.496 362.344,142.829 348.5,142.5C 348.167,142.5 347.833,142.5 347.5,142.5C 328.035,122.535 308.368,102.701 288.5,83C 287.271,82.2189 285.938,81.7189 284.5,81.5C 279.803,83.363 275.469,85.863 271.5,89C 266.238,90.4385 260.904,90.7718 255.5,90C 251.156,87.8295 247.156,85.1628 243.5,82C 240.581,81.4484 237.914,82.1151 235.5,84C 215.965,103.368 196.632,122.868 177.5,142.5C 177.167,142.5 176.833,142.5 176.5,142.5C 162.496,142.667 148.496,142.5 134.5,142C 168.085,108.916 201.085,75.4162 233.5,41.5C 241.298,34.2025 248.965,26.7025 256.5,19C 261.052,15.7581 265.385,16.0914 269.5,20C 286.368,36.7014 303.035,53.5348 319.5,70.5 Z"/></g>
<g><path style="opacity:1" fill="#763819" d="M 148.5,70.5 C 125.167,94.1667 101.833,117.833 78.5,141.5C 77.8333,141.833 77.1667,142.167 76.5,142.5C 65.495,142.667 54.495,142.5 43.5,142C 22.3459,138.683 8.34593,126.849 1.5,106.5C 7.51975,88.3161 19.8531,76.8161 38.5,72C 75.1388,70.5525 111.805,70.0525 148.5,70.5 Z"/></g>
<g><path style="opacity:1" fill="#763819" d="M 319.5,70.5 C 357.895,70.0182 396.228,70.5182 434.5,72C 435.333,72.8333 436.167,73.6667 437,74.5C 437.5,97.1642 437.667,119.831 437.5,142.5C 422.167,142.5 406.833,142.5 391.5,142.5C 390.833,142.167 390.167,141.833 389.5,141.5C 366.167,117.833 342.833,94.1667 319.5,70.5 Z"/></g>
<g><path style="opacity:1" fill="#769c12" d="M 347.5,142.5 C 290.833,142.5 234.167,142.5 177.5,142.5C 196.632,122.868 215.965,103.368 235.5,84C 237.914,82.1151 240.581,81.4484 243.5,82C 247.156,85.1628 251.156,87.8295 255.5,90C 260.904,90.7718 266.238,90.4385 271.5,89C 275.469,85.863 279.803,83.363 284.5,81.5C 285.938,81.7189 287.271,82.2189 288.5,83C 308.368,102.701 328.035,122.535 347.5,142.5 Z"/></g>
<g><path style="opacity:1" fill="#643218" d="M 1.5,106.5 C 8.34593,126.849 22.3459,138.683 43.5,142C 54.495,142.5 65.495,142.667 76.5,142.5C 70.1667,149.167 63.8333,155.833 57.5,162.5C 36.3054,166.497 19.1387,160.163 6,143.5C 2.7516,138.112 0.584928,132.446 -0.5,126.5C -0.5,121.167 -0.5,115.833 -0.5,110.5C 0.166667,109.167 0.833333,107.833 1.5,106.5 Z"/></g>
<g><path style="opacity:1" fill="#a7571e" d="M -0.5,126.5 C 0.584928,132.446 2.7516,138.112 6,143.5C 19.1387,160.163 36.3054,166.497 57.5,162.5C 175.167,162.5 292.833,162.5 410.5,162.5C 419.682,162.827 428.682,162.493 437.5,161.5C 451.504,161.333 465.504,161.5 479.5,162C 481.667,162.833 483.167,164.333 484,166.5C 484.5,201.498 484.667,236.498 484.5,271.5C 455.498,271.333 426.498,271.5 397.5,272C 367.5,277.664 351.166,295.664 348.5,326C 348.585,331.255 349.252,336.421 350.5,341.5C 347.652,359.72 353.318,375.22 367.5,388C 376.284,395.057 386.284,399.39 397.5,401C 426.498,401.5 455.498,401.667 484.5,401.5C 484.667,430.835 484.5,460.169 484,489.5C 482.661,492.094 480.494,493.594 477.5,494C 335.5,494.667 193.5,494.667 51.5,494C 24.3777,491.703 7.04433,477.537 -0.5,451.5C -0.5,343.167 -0.5,234.833 -0.5,126.5 Z"/></g>
<g><path style="opacity:1" fill="#643219" d="M 391.5,142.5 C 406.833,142.5 422.167,142.5 437.5,142.5C 437.5,148.833 437.5,155.167 437.5,161.5C 428.682,162.493 419.682,162.827 410.5,162.5C 410.5,161.833 410.167,161.5 409.5,161.5C 403.5,155.167 397.5,148.833 391.5,142.5 Z"/></g>
<g><path style="opacity:1" fill="#6e8113" d="M 78.5,141.5 C 96.8333,142.167 115.167,142.833 133.5,143.5C 127.369,149.13 121.369,154.964 115.5,161C 129.829,161.5 144.163,161.667 158.5,161.5C 227.833,161.5 297.167,161.5 366.5,161.5C 380.833,161.5 395.167,161.5 409.5,161.5C 410.167,161.5 410.5,161.833 410.5,162.5C 292.833,162.5 175.167,162.5 57.5,162.5C 63.8333,155.833 70.1667,149.167 76.5,142.5C 77.1667,142.167 77.8333,141.833 78.5,141.5 Z"/></g>
<g><path style="opacity:1" fill="#759b12" d="M 133.5,143.5 C 147.833,143.5 162.167,143.5 176.5,143.5C 170.806,149.86 164.806,155.86 158.5,161.5C 144.163,161.667 129.829,161.5 115.5,161C 121.369,154.964 127.369,149.13 133.5,143.5 Z"/></g>
<g><path style="opacity:1" fill="#6a8312" d="M 176.5,142.5 C 176.833,142.5 177.167,142.5 177.5,142.5C 234.167,142.5 290.833,142.5 347.5,142.5C 347.833,142.5 348.167,142.5 348.5,142.5C 354.5,148.833 360.5,155.167 366.5,161.5C 297.167,161.5 227.833,161.5 158.5,161.5C 164.806,155.86 170.806,149.86 176.5,143.5C 176.5,143.167 176.5,142.833 176.5,142.5 Z"/></g>
<g><path style="opacity:1" fill="#769c12" d="M 389.5,141.5 C 390.167,141.833 390.833,142.167 391.5,142.5C 397.5,148.833 403.5,155.167 409.5,161.5C 395.167,161.5 380.833,161.5 366.5,161.5C 360.5,155.167 354.5,148.833 348.5,142.5C 362.344,142.829 376.01,142.496 389.5,141.5 Z"/></g>
<g><path style="opacity:1" fill="#f29506" d="M 484.5,271.5 C 497.498,270.486 506.498,275.819 511.5,287.5C 511.5,313.833 511.5,340.167 511.5,366.5C 506.116,377.7 497.116,383.033 484.5,382.5C 454.003,381.668 423.336,381.168 392.5,381C 371.401,375.3 357.401,362.133 350.5,341.5C 349.252,336.421 348.585,331.255 348.5,326C 351.166,295.664 367.5,277.664 397.5,272C 426.498,271.5 455.498,271.333 484.5,271.5 Z"/></g>
<g><path style="opacity:1" fill="#facd37" d="M 403.5,302.5 C 425.188,301.686 435.022,312.02 433,333.5C 428.04,346.57 418.54,352.403 404.5,351C 386.263,343.965 381.097,331.465 389,313.5C 392.857,308.468 397.69,304.801 403.5,302.5 Z"/></g>
<g><path style="opacity:1" fill="#783919" d="M 350.5,341.5 C 357.401,362.133 371.401,375.3 392.5,381C 423.336,381.168 454.003,381.668 484.5,382.5C 484.5,388.833 484.5,395.167 484.5,401.5C 455.498,401.667 426.498,401.5 397.5,401C 386.284,399.39 376.284,395.057 367.5,388C 353.318,375.22 347.652,359.72 350.5,341.5 Z"/></g>
</svg>
